<svg width="800" height="400" viewBox="0 0 800 400" xmlns="http://www.w3.org/2000/svg">
  <!-- Filter for pencil/sketch effect -->
  <defs>
    <filter id="pencil-texture" x="-20%" y="-20%" width="140%" height="140%">
      <feTurbulence type="fractalNoise" baseFrequency="0.02" numOctaves="5" result="noise"/>
      <feDisplacementMap in="SourceGraphic" in2="noise" scale="4" xChannelSelector="R" yChannelSelector="G" result="displaced"/>
      <feGaussianBlur in="displaced" stdDeviation="1.5"/>
    </filter>
    <style>
      .sketch {
        stroke: #333;
        stroke-width: 2;
        fill: none;
        filter: url(#pencil-texture);
      }
      .text-sketch {
        font-family: 'Comic Sans MS', 'Chalkduster', 'cursive';
        font-size: 24px;
        fill: #333;
        filter: url(#pencil-texture);
      }
       .clean-text-lines {
        fill: #ccc;
        filter: url(#pencil-texture);
      }
      .scribble {
        stroke: #555;
        stroke-width: 1.5;
        fill: none;
        stroke-linecap: round;
        filter: url(#pencil-texture);
      }
    </style>
  </defs>

  <!-- Background -->
  <rect width="100%" height="100%" fill="#fdfdfd"/>

  <!-- Left Document (Big5) -->
  <g transform="translate(100, 100)">
    <path class="sketch" d="M0,0 H180 V200 H0 Z M180,0 L150,30 H180 Z" fill="#fff"/>
    <text x="70" y="-10" class="text-sketch">Big5</text>
    <!-- Scribbled lines -->
    <path class="scribble" d="M20,40 C 40,20 60,60 80,40 S 120,80 140,60"/>
    <path class="scribble" d="M20,70 C 50,90 30,50 80,80 S 110,50 150,90"/>
    <path class="scribble" d="M20,100 C 40,120 70,90 90,110 S 130,100 140,120"/>
    <path class="scribble" d="M20,130 C 60,150 50,120 80,140 S 120,160 150,130"/>
    <path class="scribble" d="M20,160 C 40,140 70,180 90,160 S 130,180 140,170"/>
  </g>

  <!-- Arrow -->
  <g transform="translate(350, 180)">
    <path class="sketch" d="M0,0 H100 L80, -15 M100,0 L80, 15" stroke-linejoin="round" stroke-linecap="round"/>
  </g>

  <!-- Right Document (UTF-8) -->
  <g transform="translate(520, 100)">
    <path class="sketch" d="M0,0 H180 V200 H0 Z M180,0 L150,30 H180 Z" fill="#fff"/>
    <text x="60" y="-10" class="text-sketch">UTF-8</text>
    <!-- Clean lines -->
    <rect class="clean-text-lines" x="20" y="40" width="140" height="10"/>
    <rect class="clean-text-lines" x="20" y="60" width="140" height="10"/>
    <rect class="clean-text-lines" x="20" y="80" width="100" height="10"/>
    <rect class="clean-text-lines" x="20" y="100" width="140" height="10"/>
    <rect class="clean-text-lines" x="20" y="120" width="120" height="10"/>
    <rect class="clean-text-lines" x="20" y="140" width="140" height="10"/>
    <rect class="clean-text-lines" x="20" y="160" width="80" height="10"/>
  </g>

</svg>